<svg width="439" height="365" viewBox="0 0 439 365" fill="none" xmlns="http://www.w3.org/2000/svg" xmlns:xlink="http://www.w3.org/1999/xlink">
<g clip-path="url(#clip0_15222_151)">
<path d="M144.062 19.0157L144.062 77.0157L17.0625 77.0156L17.0625 19.0156L144.062 19.0157Z" fill="url(#paint0_linear_15222_151)" stroke="black" stroke-width="10"/>
<path d="M333.062 154.016L333.062 212.016L154.062 212.016L154.062 154.016L333.062 154.016Z" fill="url(#paint1_linear_15222_151)" stroke="black" stroke-width="10"/>
<rect x="17.0625" y="154.016" width="126.945" height="58" fill="url(#paint2_linear_15222_151)" stroke="black" stroke-width="10"/>
<path d="M421.008 289.016L421.008 346.016L122.008 346.016L122.008 289.016L421.008 289.016Z" fill="url(#paint3_linear_15222_151)" stroke="black" stroke-width="10"/>
<rect x="343.008" y="154.016" width="78" height="58" fill="url(#paint4_linear_15222_151)" stroke="black" stroke-width="10"/>
<rect x="112.008" y="346.016" width="94.9453" height="57" transform="rotate(-180 112.008 346.016)" fill="url(#paint5_linear_15222_151)" stroke="black" stroke-width="10"/>
<rect x="-5" y="5" width="267" height="57.9999" transform="matrix(-1 1.90537e-07 1.87234e-07 1 416.008 14.0156)" fill="url(#paint6_linear_15222_151)" stroke="black" stroke-width="10"/>
<rect x="17.0625" y="87.0156" width="203.945" height="57" fill="url(#paint7_linear_15222_151)" stroke="black" stroke-width="10"/>
<path d="M220.945 87L220.945 144L17 144L17 87L220.945 87Z" fill="url(#paint8_linear_15222_151)" stroke="black" stroke-width="10"/>
<path d="M421.008 87.0156L421.008 144.016L231.008 144.016L231.008 87.0156L421.008 87.0156Z" fill="url(#paint9_linear_15222_151)" stroke="black" stroke-width="10"/>
<rect x="273.008" y="222.016" width="148" height="57" fill="url(#paint10_linear_15222_151)" stroke="black" stroke-width="10"/>
<path d="M65.0078 279.016L65.0078 222.016L263.008 222.016L263.008 279.016L65.0078 279.016Z" fill="url(#paint11_linear_15222_151)" stroke="black" stroke-width="10"/>
<rect x="55.0078" y="279.016" width="37.9453" height="57" transform="rotate(-180 55.0078 279.016)" fill="url(#paint12_linear_15222_151)" stroke="black" stroke-width="10"/>
</g>
<defs>
<linearGradient id="paint0_linear_15222_151" x1="12.0625" y1="48.0156" x2="149.063" y2="48.0156" gradientUnits="userSpaceOnUse">
<stop stop-color="#C7B8F5"/>
<stop offset="0.0747544" stop-opacity="0.8"/>
<stop offset="0.899072" stop-color="#F3B5D2"/>
<stop offset="1" stop-color="#F3B5D2"/>
</linearGradient>
<linearGradient id="paint1_linear_15222_151" x1="149.062" y1="183.016" x2="338.063" y2="183.016" gradientUnits="userSpaceOnUse">
<stop/>
<stop offset="0.350936" stop-color="#F3B5D2"/>
<stop offset="0.649022" stop-color="#C7B8F5"/>
<stop offset="1"/>
</linearGradient>
<linearGradient id="paint2_linear_15222_151" x1="12.0625" y1="183.016" x2="149.008" y2="183.016" gradientUnits="userSpaceOnUse">
<stop stop-color="#F3B5D2"/>
<stop offset="1" stop-color="#C7B8F5"/>
</linearGradient>
<linearGradient id="paint3_linear_15222_151" x1="117.008" y1="317.516" x2="426.008" y2="317.516" gradientUnits="userSpaceOnUse">
<stop stop-color="#C7B8F5"/>
<stop offset="0.10097" stop-color="#C7B8F5"/>
<stop offset="0.5" stop-opacity="0.8"/>
<stop offset="0.899072" stop-color="#F3B5D2"/>
<stop offset="1" stop-color="#F3B5D2"/>
</linearGradient>
<linearGradient id="paint4_linear_15222_151" x1="338.008" y1="183.523" x2="426.008" y2="183.523" gradientUnits="userSpaceOnUse">
<stop offset="0.373165" stop-color="#C7B8F5"/>
<stop offset="1"/>
</linearGradient>
<linearGradient id="paint5_linear_15222_151" x1="117.008" y1="385.016" x2="221.953" y2="385.016" gradientUnits="userSpaceOnUse">
<stop stop-color="#F3B5D2"/>
<stop offset="1" stop-color="#C7B8F5"/>
</linearGradient>
<linearGradient id="paint6_linear_15222_151" x1="0" y1="34" x2="277" y2="34" gradientUnits="userSpaceOnUse">
<stop stop-color="#C7B8F5"/>
<stop offset="1" stop-color="#F3B5D2"/>
</linearGradient>
<linearGradient id="paint7_linear_15222_151" x1="12.0625" y1="115.516" x2="226.008" y2="115.516" gradientUnits="userSpaceOnUse">
<stop stop-color="#C7B8F5"/>
<stop offset="1" stop-color="#F3B5D2"/>
</linearGradient>
<linearGradient id="paint8_linear_15222_151" x1="12" y1="115.5" x2="225.945" y2="115.5" gradientUnits="userSpaceOnUse">
<stop stop-color="#C7B8F5"/>
<stop offset="0.10097" stop-color="#C7B8F5"/>
<stop offset="0.5" stop-opacity="0.8"/>
<stop offset="0.899072" stop-color="#F3B5D2"/>
<stop offset="1" stop-color="#F3B5D2"/>
</linearGradient>
<linearGradient id="paint9_linear_15222_151" x1="226.008" y1="115.516" x2="426.008" y2="115.516" gradientUnits="userSpaceOnUse">
<stop/>
<stop offset="0.350978" stop-color="#C7B8F5"/>
<stop offset="0.649064" stop-color="#F3B5D2"/>
<stop offset="1"/>
</linearGradient>
<linearGradient id="paint10_linear_15222_151" x1="268.008" y1="250.516" x2="426.008" y2="250.516" gradientUnits="userSpaceOnUse">
<stop stop-color="#C7B8F5"/>
<stop offset="1" stop-color="#F3B5D2"/>
</linearGradient>
<linearGradient id="paint11_linear_15222_151" x1="268.008" y1="250.516" x2="60.0078" y2="250.516" gradientUnits="userSpaceOnUse">
<stop stop-color="#C7B8F5"/>
<stop offset="0.10097" stop-color="#C7B8F5"/>
<stop offset="0.5" stop-opacity="0.8"/>
<stop offset="0.899072" stop-color="#F3B5D2"/>
<stop offset="1" stop-color="#F3B5D2"/>
</linearGradient>
<linearGradient id="paint12_linear_15222_151" x1="60.0078" y1="318.016" x2="107.953" y2="318.016" gradientUnits="userSpaceOnUse">
<stop stop-color="#C7B8F5"/>
<stop offset="1" stop-color="#F3B5D2"/>
</linearGradient>
<clipPath id="clip0_15222_151">
<rect width="438.07" height="365" fill="white"/>
</clipPath>
</defs>
</svg>
